<svg xmlns="http://www.w3.org/2000/svg" xmlns:xlink="http://www.w3.org/1999/xlink" version="1.1" x="100px" y="100px" viewBox="0 0 100 100" enable-background="new 0 0 100 100" 
     xml:space="preserve">
  <path fill="#fff" d="M62.512,30.339c-0.505-0.216-1.096,0.014-1.315,0.521c-0.219,0.507,0.014,1.095,0.521,1.315  c11.235,4.862,18.494,15.912,18.494,28.152c0,14.514-10.14,26.695-23.705,29.855c-0.001-0.169-0.002-0.359-0.005-0.578  c0-0.002,0.001-0.006,0.002-0.008c1.461-6.661,5.834-25.25,6.774-29.096H70.5c0.553,0,1-0.447,1-1s-0.447-1-1-1h-1.99l0.857-6H76.5  c0.553,0,1-0.447,1-1s-0.447-1-1-1h-4.873c-1.289-0.326-4.394-1.242-7.06-2.041L65.22,46.5h2.28c0.014,0,0.027,0,0.041-0.001  l1.101-0.046c0.983,0,1.783-0.8,1.783-1.784c0-0.696-0.409-1.333-1.038-1.621l-0.312-0.145c-0.037-0.017-0.075-0.032-0.114-0.044  l-10.335-3.328c-0.781-0.202-1.76-0.612-1.98-1.422c-0.196-0.718,0.22-1.56,0.562-1.903c0.286-0.286,0.372-0.716,0.217-1.09  C57.27,34.744,56.904,34.5,56.5,34.5h-1v-1c0-1.103-0.897-2-2-2h-2.127c-0.258-2.091-0.873-8.289-0.873-20c0-0.552-0.448-1-1-1  s-1,0.448-1,1c0,11.685-0.615,17.903-0.873,20H45.5c-1.103,0-2,0.897-2,2v1h-1c-0.404,0-0.769,0.244-0.924,0.617  c-0.155,0.374-0.069,0.804,0.217,1.09c0.343,0.343,0.758,1.185,0.562,1.903c-0.221,0.81-1.199,1.22-2.037,1.438L30.04,42.859  c-0.039,0.012-0.078,0.027-0.115,0.045l-0.306,0.142c-0.634,0.29-1.044,0.927-1.044,1.624c0,0.983,0.799,1.783,1.741,1.783h0.001  L31.5,46.5h1.279l0.638,1.913c-2.619,0.809-5.737,1.755-7.045,2.087H22.5c-0.552,0-1,0.447-1,1s0.448,1,1,1h7.133l0.857,6H28.5  c-0.552,0-1,0.447-1,1s0.448,1,1,1h7.223c0.94,3.846,5.312,22.431,6.773,29.094c0.001,0.004,0.002,0.009,0.003,0.013  c-0.001,0.118-0.002,0.326-0.003,0.552c-13.515-3.196-23.605-15.354-23.605-29.832c0-12.228,7.25-23.274,18.469-28.141  c0.507-0.22,0.739-0.809,0.52-1.315c-0.219-0.507-0.81-0.739-1.315-0.52c-11.951,5.185-19.673,16.951-19.673,29.976  c0,18.009,14.651,32.66,32.66,32.66c18.008,0,32.66-14.651,32.66-32.66C82.211,47.29,74.479,35.519,62.512,30.339z M59.667,66.99  c0.454-3.477,0.783-6.036,0.825-6.363c0.006-0.044-0.009-0.084-0.009-0.127h0.786C60.878,61.976,60.311,64.289,59.667,66.99z   M36.66,49.5h24.428c0.884,0.268,2.062,0.623,3.322,1H33.437C34.66,50.124,35.802,49.768,36.66,49.5z M54.653,57.5l0.714-5h5.979  l-0.714,5H54.653z M47.5,73.78v-0.893l3.954,1.318c-0.001,0.315-0.002,0.61-0.004,0.891L47.5,73.78z M47.5,68.78v-0.893l3.971,1.324  c-0.001,0.3-0.002,0.596-0.003,0.892L47.5,68.78z M47.5,63.78v-0.893l3.986,1.328c-0.001,0.292-0.002,0.59-0.003,0.892L47.5,63.78z   M52.632,57.5H52.5h-6h-0.133l-0.714-5h7.694L52.632,57.5z M43.633,52.5l0.714,5h-5.98l-0.714-5H43.633z M47.887,78.909  c-0.065-0.313-0.13-0.631-0.195-0.958l3.385,1.128c-0.058,0.28-0.117,0.567-0.174,0.835L47.887,78.909z M45.5,60.5v6l-1-6H45.5z   M50.021,83.727c-0.186,0.722-0.361,1.336-0.521,1.818c-0.186-0.561-0.395-1.316-0.616-2.198L50.021,83.727z M53.5,66.5v-6h1  L53.5,66.5z M66.633,57.5h-3.979l0.714-5h3.979L66.633,57.5z M45.5,33.5h3h2h3v1h-8V33.5z M31.474,44.498l9.401-3.03  c2.345-0.605,3.148-1.874,3.41-2.832c0.2-0.73,0.138-1.474-0.07-2.136h10.571c-0.208,0.663-0.27,1.406-0.07,2.136  c0.262,0.958,1.065,2.227,3.354,2.815L67.5,44.5l-35.959,0.001L31.474,44.498z M35.633,52.5l0.714,5h-3.98l-0.714-5H35.633z   M37.731,60.5h0.787c0,0.043-0.015,0.083-0.009,0.127c0.042,0.327,0.371,2.888,0.825,6.367C38.689,64.292,38.122,61.977,37.731,60.5  z M44.5,90.564V89.5c0-0.022-0.006-0.043-0.008-0.065c-0.003-0.05-0.005-0.1-0.015-0.149c0-0.001-0.003-0.013-0.003-0.015V89.27  c-0.477-2.024-2.793-19.628-3.966-28.77H42.5c4.225,27.982,6.077,28,7,28s2.774-0.018,7-28h2c0,0-3.496,26.746-3.974,28.771  c0,0.002,0,0.003-0.001,0.005c0,0.001-0.002,0.01-0.002,0.01c-0.009,0.039-0.009,0.078-0.012,0.118  C54.508,89.436,54.5,89.468,54.5,89.5v1.082c-1.612,0.263-3.264,0.405-4.949,0.405C47.83,90.987,46.144,90.838,44.5,90.564z">
    
  </path></svg>